<svg width="201" height="40" viewBox="0 0 201 40" fill="none" xmlns="http://www.w3.org/2000/svg">
<path d="M20.349 18.3698C19.97 18.7511 19.6798 19.2113 19.499 19.7175C19.3182 20.2238 19.2513 20.7637 19.303 21.2988L19.285 21.2808C19.3382 21.9107 19.2532 22.5445 19.0361 23.1382C18.819 23.7318 18.475 24.2709 18.0281 24.7179C17.5811 25.1648 17.042 25.5089 16.4483 25.7259C15.8547 25.943 15.2208 26.028 14.591 25.9748L14.609 25.9928C13.8556 25.9227 13.0989 26.0866 12.442 26.4623C11.7852 26.838 11.2602 27.4071 10.9387 28.0921C10.6172 28.7771 10.5147 29.5445 10.6453 30.2899C10.776 31.0352 11.1333 31.7221 11.6686 32.2569C12.2039 32.7917 12.8911 33.1484 13.6365 33.2783C14.382 33.4083 15.1493 33.3051 15.834 32.983C16.5187 32.6608 17.0873 32.1354 17.4624 31.4782C17.8375 30.821 18.0008 30.0642 17.93 29.3108L17.949 29.3288C17.8958 28.699 17.9807 28.0651 18.1978 27.4714C18.4149 26.8778 18.759 26.3387 19.2059 25.8917C19.6529 25.4448 20.192 25.1007 20.7856 24.8837C21.3793 24.6666 22.0131 24.5816 22.643 24.6348L22.624 24.6168C23.2394 24.6721 23.8589 24.5712 24.425 24.3234C24.991 24.0756 25.4854 23.6889 25.8622 23.1992C26.239 22.7095 26.4862 22.1325 26.5806 21.5219C26.6751 20.9112 26.6139 20.2866 26.4027 19.7058C26.1915 19.1251 25.8371 18.6071 25.3724 18.1998C24.9077 17.7925 24.3477 17.5091 23.7443 17.3759C23.1409 17.2427 22.5136 17.2639 21.9206 17.4376C21.3276 17.6114 20.7881 17.932 20.352 18.3698H20.349Z" fill="#1F284F"/>
<path d="M12.9718 23.6348L12.9528 23.6168C13.4881 23.6707 14.0287 23.605 14.5356 23.4244C15.0424 23.2438 15.5028 22.9529 15.8834 22.5726C16.2639 22.1923 16.5553 21.7321 16.7362 21.2254C16.9172 20.7187 16.9833 20.1782 16.9298 19.6428L16.9488 19.6608C16.8956 19.0309 16.9806 18.3971 17.1976 17.8034C17.4147 17.2098 17.7588 16.6707 18.2057 16.2237C18.6527 15.7768 19.1918 15.4327 19.7854 15.2157C20.3791 14.9985 21.0129 14.9136 21.6428 14.9668L21.6238 14.9488C22.3773 15.0196 23.1342 14.8561 23.7914 14.4809C24.4487 14.1056 24.9741 13.5367 25.2961 12.8519C25.6181 12.167 25.721 11.3995 25.5908 10.654C25.4606 9.90847 25.1036 9.22129 24.5684 8.68615C24.0333 8.15102 23.3461 7.79398 22.6006 7.66376C21.8551 7.53353 21.0876 7.63644 20.4027 7.95846C19.7178 8.28047 19.149 8.80592 18.7737 9.46313C18.3984 10.1203 18.235 10.8773 18.3058 11.6308L18.2878 11.6118C18.3411 12.2417 18.2563 12.8756 18.0393 13.4693C17.8223 14.063 17.4782 14.6022 17.0313 15.0493C16.5843 15.4962 16.0451 15.8403 15.4514 16.0573C14.8576 16.2743 14.2237 16.3591 13.5938 16.3058L13.6118 16.3248C13.0765 16.2709 12.5358 16.3366 12.029 16.5172C11.5222 16.6977 11.0618 16.9887 10.6812 17.369C10.3006 17.7493 10.0093 18.2095 9.82834 18.7162C9.64744 19.2229 9.58134 19.7634 9.63484 20.2988L9.61684 20.2808C9.66984 20.9106 9.58474 21.5444 9.36764 22.138C9.15044 22.7315 8.80644 23.2706 8.35954 23.7175C7.9126 24.1644 7.37356 24.5084 6.78 24.7256C6.18644 24.9427 5.55265 25.0278 4.92284 24.9748L4.94084 24.9928C4.18736 24.922 3.43039 25.0854 2.77318 25.4607C2.11598 25.836 1.59053 26.4048 1.26852 27.0897C0.946502 27.7746 0.843582 28.5421 0.973812 29.2876C1.10404 30.0331 1.46108 30.7203 1.99621 31.2554C2.53135 31.7906 3.21853 32.1476 3.96404 32.2778C4.70955 32.408 5.47708 32.3051 6.16195 31.9831C6.84681 31.6611 7.41568 31.1357 7.79094 30.4785C8.16624 29.8212 8.32964 29.0643 8.25884 28.3108L8.27784 28.3288C8.22464 27.6989 8.30964 27.0651 8.52674 26.4714C8.74374 25.8778 9.08784 25.3387 9.53474 24.8917C9.98174 24.4448 10.5208 24.1007 11.1144 23.8837C11.7081 23.6666 12.3419 23.5816 12.9718 23.6348Z" fill="#1F284F"/>
<path d="M6.2699 21.6278C6.64892 21.2466 6.9391 20.7864 7.11974 20.2801C7.30038 19.7738 7.36702 19.2338 7.3149 18.6988L7.33389 18.7168C7.28069 18.0868 7.36565 17.4527 7.58286 16.8589C7.80007 16.2651 8.1443 15.7259 8.5915 15.2789C9.0387 14.832 9.578 14.488 10.1719 14.271C10.7658 14.0541 11.3999 13.9694 12.0299 14.0228L12.0109 14.0048C12.7641 14.0754 13.5208 13.9119 14.1777 13.5367C14.8346 13.1615 15.3597 12.5927 15.6816 11.9081C16.0034 11.2234 16.1062 10.4562 15.976 9.71093C15.8458 8.9657 15.4888 8.27878 14.9539 7.74384C14.419 7.2089 13.732 6.85198 12.9868 6.72176C12.2416 6.59153 11.4743 6.69435 10.7897 7.01617C10.105 7.33799 9.5363 7.86316 9.1611 8.52006C8.7858 9.17696 8.6223 9.93362 8.6929 10.6868L8.6749 10.6688C8.7281 11.2987 8.6431 11.9326 8.426 12.5262C8.2089 13.1198 7.86492 13.659 7.41796 14.1059C6.97101 14.5529 6.43189 14.8969 5.83825 15.1139C5.24461 15.331 4.61075 15.416 3.9809 15.3628L3.9989 15.3808C3.38347 15.3256 2.76406 15.4267 2.19808 15.6746C1.6321 15.9225 1.13785 16.3093 0.761139 16.7991C0.384429 17.2888 0.137449 17.8658 0.0430689 18.4764C-0.0513011 19.0871 0.0099889 19.7117 0.221259 20.2923C0.432529 20.873 0.786959 21.3909 1.25169 21.7981C1.71642 22.2054 2.27642 22.4887 2.8798 22.6219C3.48317 22.755 4.1104 22.7337 4.70337 22.56C5.29633 22.3862 5.83583 22.0656 6.27189 21.6278H6.2699Z" fill="#1F284F"/>
<path d="M46.0438 12.96L41.0638 27H36.7838L31.8038 12.96H35.4438L38.9238 23.56L42.4238 12.96H46.0438ZM46.7932 21.4C46.7932 20.2533 47.0065 19.2467 47.4332 18.38C47.8732 17.5133 48.4665 16.8467 49.2132 16.38C49.9598 15.9133 50.7932 15.68 51.7132 15.68C52.4998 15.68 53.1865 15.84 53.7732 16.16C54.3732 16.48 54.8332 16.9 55.1532 17.42V15.84H58.5732V27H55.1532V25.42C54.8198 25.94 54.3532 26.36 53.7532 26.68C53.1665 27 52.4798 27.16 51.6932 27.16C50.7865 27.16 49.9598 26.9267 49.2132 26.46C48.4665 25.98 47.8732 25.3067 47.4332 24.44C47.0065 23.56 46.7932 22.5467 46.7932 21.4ZM55.1532 21.42C55.1532 20.5667 54.9132 19.8933 54.4332 19.4C53.9665 18.9067 53.3932 18.66 52.7132 18.66C52.0332 18.66 51.4532 18.9067 50.9732 19.4C50.5065 19.88 50.2732 20.5467 50.2732 21.4C50.2732 22.2533 50.5065 22.9333 50.9732 23.44C51.4532 23.9333 52.0332 24.18 52.7132 24.18C53.3932 24.18 53.9665 23.9333 54.4332 23.44C54.9132 22.9467 55.1532 22.2733 55.1532 21.42ZM64.4674 12.2V27H61.0474V12.2H64.4674ZM68.6658 14.68C68.0658 14.68 67.5725 14.5067 67.1858 14.16C66.8125 13.8 66.6258 13.36 66.6258 12.84C66.6258 12.3067 66.8125 11.8667 67.1858 11.52C67.5725 11.16 68.0658 10.98 68.6658 10.98C69.2525 10.98 69.7325 11.16 70.1058 11.52C70.4925 11.8667 70.6858 12.3067 70.6858 12.84C70.6858 13.36 70.4925 13.8 70.1058 14.16C69.7325 14.5067 69.2525 14.68 68.6658 14.68ZM70.3658 15.84V27H66.9458V15.84H70.3658ZM72.1642 21.4C72.1642 20.2533 72.3776 19.2467 72.8042 18.38C73.2442 17.5133 73.8376 16.8467 74.5842 16.38C75.3309 15.9133 76.1642 15.68 77.0842 15.68C77.8176 15.68 78.4842 15.8333 79.0842 16.14C79.6976 16.4467 80.1776 16.86 80.5242 17.38V12.2H83.9442V27H80.5242V25.4C80.2042 25.9333 79.7442 26.36 79.1442 26.68C78.5576 27 77.8709 27.16 77.0842 27.16C76.1642 27.16 75.3309 26.9267 74.5842 26.46C73.8376 25.98 73.2442 25.3067 72.8042 24.44C72.3776 23.56 72.1642 22.5467 72.1642 21.4ZM80.5242 21.42C80.5242 20.5667 80.2842 19.8933 79.8042 19.4C79.3376 18.9067 78.7642 18.66 78.0842 18.66C77.4042 18.66 76.8242 18.9067 76.3442 19.4C75.8776 19.88 75.6442 20.5467 75.6442 21.4C75.6442 22.2533 75.8776 22.9333 76.3442 23.44C76.8242 23.9333 77.4042 24.18 78.0842 24.18C78.7642 24.18 79.3376 23.9333 79.8042 23.44C80.2842 22.9467 80.5242 22.2733 80.5242 21.42ZM85.7385 21.4C85.7385 20.2533 85.9518 19.2467 86.3785 18.38C86.8185 17.5133 87.4118 16.8467 88.1585 16.38C88.9051 15.9133 89.7385 15.68 90.6585 15.68C91.4451 15.68 92.1318 15.84 92.7185 16.16C93.3185 16.48 93.7785 16.9 94.0985 17.42V15.84H97.5185V27H94.0985V25.42C93.7651 25.94 93.2985 26.36 92.6985 26.68C92.1118 27 91.4251 27.16 90.6385 27.16C89.7318 27.16 88.9051 26.9267 88.1585 26.46C87.4118 25.98 86.8185 25.3067 86.3785 24.44C85.9518 23.56 85.7385 22.5467 85.7385 21.4ZM94.0985 21.42C94.0985 20.5667 93.8585 19.8933 93.3785 19.4C92.9118 18.9067 92.3385 18.66 91.6585 18.66C90.9785 18.66 90.3985 18.9067 89.9185 19.4C89.4518 19.88 89.2185 20.5467 89.2185 21.4C89.2185 22.2533 89.4518 22.9333 89.9185 23.44C90.3985 23.9333 90.9785 24.18 91.6585 24.18C92.3385 24.18 92.9118 23.9333 93.3785 23.44C93.8585 22.9467 94.0985 22.2733 94.0985 21.42ZM106.213 24.1V27H104.473C103.233 27 102.266 26.7 101.573 26.1C100.879 25.4867 100.533 24.4933 100.533 23.12V18.68H99.1727V15.84H100.533V13.12H103.953V15.84H106.193V18.68H103.953V23.16C103.953 23.4933 104.033 23.7333 104.193 23.88C104.353 24.0267 104.619 24.1 104.993 24.1H106.213ZM113.198 27.16C112.104 27.16 111.118 26.9267 110.238 26.46C109.371 25.9933 108.684 25.3267 108.178 24.46C107.684 23.5933 107.438 22.58 107.438 21.42C107.438 20.2733 107.691 19.2667 108.198 18.4C108.704 17.52 109.398 16.8467 110.278 16.38C111.158 15.9133 112.144 15.68 113.238 15.68C114.331 15.68 115.318 15.9133 116.198 16.38C117.078 16.8467 117.771 17.52 118.278 18.4C118.784 19.2667 119.038 20.2733 119.038 21.42C119.038 22.5667 118.778 23.58 118.258 24.46C117.751 25.3267 117.051 25.9933 116.158 26.46C115.278 26.9267 114.291 27.16 113.198 27.16ZM113.198 24.2C113.851 24.2 114.404 23.96 114.858 23.48C115.324 23 115.558 22.3133 115.558 21.42C115.558 20.5267 115.331 19.84 114.878 19.36C114.438 18.88 113.891 18.64 113.238 18.64C112.571 18.64 112.018 18.88 111.578 19.36C111.138 19.8267 110.918 20.5133 110.918 21.42C110.918 22.3133 111.131 23 111.558 23.48C111.998 23.96 112.544 24.2 113.198 24.2ZM124.272 17.7C124.672 17.0867 125.172 16.6067 125.772 16.26C126.372 15.9 127.039 15.72 127.772 15.72V19.34H126.832C125.979 19.34 125.339 19.5267 124.912 19.9C124.485 20.26 124.272 20.9 124.272 21.82V27H120.852V15.84H124.272V17.7Z" fill="#1F284F"/>
</svg>
